<svg xmlns="http://www.w3.org/2000/svg" width="2560" height="1440" viewBox="0 0 2560 1440">
    <defs>
      <linearGradient id="bg" x1="0" y1="0" x2="1" y2="1">
        <stop offset="0" stop-color="#060817"/>
        <stop offset="0.55" stop-color="#0b1230"/>
        <stop offset="1" stop-color="#17113a"/>
      </linearGradient>
      <radialGradient id="haloBlue"><stop offset="0" stop-color="#62ddff" stop-opacity=".32"/><stop offset=".45" stop-color="#5b7cff" stop-opacity=".12"/><stop offset="1" stop-color="#5b7cff" stop-opacity="0"/></radialGradient>
      <radialGradient id="haloOrange"><stop offset="0" stop-color="#ff7a1a" stop-opacity=".34"/><stop offset=".6" stop-color="#ff7a1a" stop-opacity=".08"/><stop offset="1" stop-color="#ff7a1a" stop-opacity="0"/></radialGradient>
      <linearGradient id="glass" x1="0" y1="0" x2="1" y2="1">
        <stop offset="0" stop-color="#dce8ff" stop-opacity=".16"/>
        <stop offset=".45" stop-color="#7390ff" stop-opacity=".08"/>
        <stop offset="1" stop-color="#05071a" stop-opacity=".28"/>
      </linearGradient>
      <linearGradient id="glassWarm" x1="0" y1="0" x2="1" y2="1">
        <stop offset="0" stop-color="#ffd7b7" stop-opacity=".2"/>
        <stop offset=".5" stop-color="#ff8a33" stop-opacity=".09"/>
        <stop offset="1" stop-color="#080717" stop-opacity=".3"/>
      </linearGradient>
      <linearGradient id="stream" x1="0" y1="0" x2="1" y2="0">
        <stop offset="0" stop-color="#62ddff" stop-opacity="0"/>
        <stop offset=".18" stop-color="#62ddff" stop-opacity=".88"/>
        <stop offset=".58" stop-color="#5b7cff" stop-opacity=".9"/>
        <stop offset=".84" stop-color="#8c6cff" stop-opacity=".72"/>
        <stop offset="1" stop-color="#ff7a1a" stop-opacity=".18"/>
      </linearGradient>
      <linearGradient id="edge" x1="0" y1="0" x2="1" y2="1"><stop stop-color="#62ddff"/><stop offset=".55" stop-color="#5b7cff"/><stop offset="1" stop-color="#8c6cff"/></linearGradient>
      <filter id="glow" x="-100%" y="-100%" width="300%" height="300%">
        <feGaussianBlur stdDeviation="10" result="b"/><feMerge><feMergeNode in="b"/><feMergeNode in="SourceGraphic"/></feMerge>
      </filter>
      <filter id="glowSmall" x="-100%" y="-100%" width="300%" height="300%">
        <feGaussianBlur stdDeviation="4" result="b"/><feMerge><feMergeNode in="b"/><feMergeNode in="SourceGraphic"/></feMerge>
      </filter>
      <filter id="shadow" x="-40%" y="-40%" width="180%" height="180%"><feDropShadow dx="0" dy="24" stdDeviation="28" flood-color="#00020c" flood-opacity=".7"/></filter>
      <filter id="grain" x="0" y="0" width="100%" height="100%">
        <feTurbulence type="fractalNoise" baseFrequency="0.8" numOctaves="3" seed="32" result="n"/>
        <feColorMatrix in="n" type="saturate" values="0"/>
        <feComponentTransfer><feFuncA type="table" tableValues="0 .08"/></feComponentTransfer>
      </filter>
      <pattern id="grid" width="64" height="64" patternUnits="userSpaceOnUse">
        <path d="M64 0H0V64" fill="none" stroke="#7895ff" stroke-opacity=".055" stroke-width="1"/>
      </pattern>
    </defs><rect width="2560" height="1440" fill="url(#bg)"/><rect width="2560" height="1440" fill="url(#grid)"/><ellipse cx="1280" cy="720" rx="870" ry="835" fill="url(#haloBlue)"/><ellipse cx="2124" cy="503" rx="460" ry="403" fill="url(#haloOrange)"/><rect width="2560" height="1440" filter="url(#grain)" opacity=".38"/><circle cx="1280" cy="710" r="250" fill="none" stroke="#62ddff" stroke-opacity="0.08" stroke-width="2" stroke-dasharray="10 18"/><circle cx="1280" cy="710" r="175" fill="none" stroke="#62ddff" stroke-opacity="0.18" stroke-width="2" stroke-dasharray="10 18"/><circle cx="1280" cy="710" r="105" fill="none" stroke="#62ddff" stroke-opacity="0.44" stroke-width="2" stroke-dasharray="10 18"/><circle cx="1280" cy="710" r="82" fill="url(#glass)" stroke="#ff7a1a" stroke-opacity=".75" stroke-width="3" filter="url(#glow)"/><path d="M1230.4 679.6 Q1230.4 655.6 1254.4 655.6 H1313.6 Q1334.4 655.6 1334.4 678.0 V722.8 Q1334.4 745.2 1312.0 745.2 H1270.4 L1241.6 767.6 L1249.6 743.6 Q1230.4 740.4 1230.4 719.6Z" fill="none" stroke="#62ddff" stroke-width="8.0" stroke-linejoin="round"/><path d="M1280.0 615.0 Q1340.0 450.0 1280.0 280.0" fill="none" stroke="#62ddff" stroke-opacity="0.2" stroke-width="2.5"/><path d="M1180.0 280.0 Q1210.0 180.0 1280.0 150.0 Q1350.0 180.0 1380.0 280.0 Q1350.0 380.0 1280.0 410.0 Q1210.0 380.0 1180.0 280.0Z" fill="url(#glass)" stroke="#62ddff" stroke-opacity=".42" stroke-width="2" filter="url(#shadow)"/><path d="M1236.6 253.4 Q1236.6 232.4 1257.6 232.4 H1309.4 Q1327.6 232.4 1327.6 252.0 V291.2 Q1327.6 310.8 1308.0 310.8 H1271.6 L1246.4 330.4 L1253.4 309.4 Q1236.6 306.6 1236.6 288.4Z" fill="none" stroke="#62ddff" stroke-width="7.0" stroke-linejoin="round"/><path d="M1364.9 642.8 Q1569.9 568.6 1683.0508652763322 405.9440840897846" fill="none" stroke="#62ddff" stroke-opacity="0.2" stroke-width="2.5"/><path d="M1583.0508652763322 405.9440840897846 Q1613.0508652763322 305.9440840897846 1683.0508652763322 275.9440840897846 Q1753.0508652763322 305.9440840897846 1783.0508652763322 405.9440840897846 Q1753.0508652763322 505.9440840897846 1683.0508652763322 535.9440840897846 Q1613.0508652763322 505.9440840897846 1583.0508652763322 405.9440840897846Z" fill="url(#glass)" stroke="#62ddff" stroke-opacity=".42" stroke-width="2" filter="url(#shadow)"/><path d="M1630.5508652763322 405.9440840897846 C1644.5508652763322 363.9440840897846,1665.5508652763322 447.9440840897846,1683.0508652763322 405.9440840897846 S1721.5508652763322 363.9440840897846,1735.5508652763322 405.9440840897846" fill="none" stroke="#62ddff" stroke-width="7.7" stroke-linecap="round" filter="url(#glowSmall)"/><path d="M1400.0 710.0 Q1630.0 770.0 1850.0 710.0" fill="none" stroke="#62ddff" stroke-opacity="0.2" stroke-width="2.5"/><path d="M1750.0 710.0 Q1780.0 610.0 1850.0 580.0 Q1920.0 610.0 1950.0 710.0 Q1920.0 810.0 1850.0 840.0 Q1780.0 810.0 1750.0 710.0Z" fill="url(#glass)" stroke="#62ddff" stroke-opacity=".42" stroke-width="2" filter="url(#shadow)"/><path d="M1850.0 673.6 Q1830.4 661.0 1806.6 675.0 V741.5 Q1830.4 729.6 1850.0 745.0 Q1869.6 729.6 1893.4 741.5 V675.0 Q1869.6 661.0 1850.0 673.6Z" fill="none" stroke="#62ddff" stroke-width="5.6000000000000005"/><path d="M1850.0 675.0V743.6" stroke="#62ddff" stroke-width="4.2"/><path d="M1364.9 777.2 Q1485.1 936.3 1683.0508652763322 1014.0559159102154" fill="none" stroke="#62ddff" stroke-opacity="0.2" stroke-width="2.5"/><path d="M1583.0508652763322 1014.0559159102154 Q1613.0508652763322 914.0559159102154 1683.0508652763322 884.0559159102154 Q1753.0508652763322 914.0559159102154 1783.0508652763322 1014.0559159102154 Q1753.0508652763322 1114.0559159102154 1683.0508652763322 1144.0559159102154 Q1613.0508652763322 1114.0559159102154 1583.0508652763322 1014.0559159102154Z" fill="url(#glass)" stroke="#62ddff" stroke-opacity=".42" stroke-width="2" filter="url(#shadow)"/><circle cx="1683.0508652763322" cy="1014.0559159102154" r="40.599999999999994" fill="none" stroke="#62ddff" stroke-width="4.9"/><ellipse cx="1683.0508652763322" cy="1014.0559159102154" rx="18.2" ry="40.599999999999994" fill="none" stroke="#62ddff" stroke-width="3.85"/><path d="M1644.5508652763322 1001.4559159102154H1721.5508652763322M1644.5508652763322 1026.6559159102153H1721.5508652763322" stroke="#62ddff" stroke-width="3.85"/><path d="M1280.0 805.0 Q1220.0 970.0 1280.0 1140.0" fill="none" stroke="#62ddff" stroke-opacity="0.2" stroke-width="2.5"/><path d="M1180.0 1140.0 Q1210.0 1040.0 1280.0 1010.0 Q1350.0 1040.0 1380.0 1140.0 Q1350.0 1240.0 1280.0 1270.0 Q1210.0 1240.0 1180.0 1140.0Z" fill="url(#glass)" stroke="#62ddff" stroke-opacity=".42" stroke-width="2" filter="url(#shadow)"/><path d="M1243.6 1173.6 L1285.6 1131.6 Q1281.4 1105.0 1301.0 1092.4 L1311.5 1114.8 L1330.4 1127.4 Q1315.0 1147.0 1288.4 1143.5 L1246.4 1184.8Z" fill="none" stroke="#62ddff" stroke-width="5.6000000000000005" stroke-linejoin="round"/><path d="M1195.1 777.2 Q990.1 851.4 876.949134723668 1014.0559159102154" fill="none" stroke="#62ddff" stroke-opacity="0.2" stroke-width="2.5"/><path d="M776.949134723668 1014.0559159102154 Q806.949134723668 914.0559159102154 876.949134723668 884.0559159102154 Q946.949134723668 914.0559159102154 976.949134723668 1014.0559159102154 Q946.949134723668 1114.0559159102154 876.949134723668 1144.0559159102154 Q806.949134723668 1114.0559159102154 776.949134723668 1014.0559159102154Z" fill="url(#glass)" stroke="#62ddff" stroke-opacity=".42" stroke-width="2" filter="url(#shadow)"/><line x1="876.949134723668" y1="1014.0559159102154" x2="910.549134723668" y2="1014.0559159102154" stroke="#62ddff" stroke-opacity=".72" stroke-width="3.15"/><circle cx="910.549134723668" cy="1014.0559159102154" r="7.7" fill="#62ddff" fill-opacity=".85"/><line x1="876.949134723668" y1="1014.0559159102154" x2="893.7491347236679" y2="1043.1543694773725" stroke="#62ddff" stroke-opacity=".72" stroke-width="3.15"/><circle cx="893.7491347236679" cy="1043.1543694773725" r="7.7" fill="#62ddff" fill-opacity=".85"/><line x1="876.949134723668" y1="1014.0559159102154" x2="860.149134723668" y2="1043.1543694773725" stroke="#62ddff" stroke-opacity=".72" stroke-width="3.15"/><circle cx="860.149134723668" cy="1043.1543694773725" r="7.7" fill="#62ddff" fill-opacity=".85"/><line x1="876.949134723668" y1="1014.0559159102154" x2="843.3491347236679" y2="1014.0559159102154" stroke="#62ddff" stroke-opacity=".72" stroke-width="3.15"/><circle cx="843.3491347236679" cy="1014.0559159102154" r="7.7" fill="#62ddff" fill-opacity=".85"/><line x1="876.949134723668" y1="1014.0559159102154" x2="860.1491347236679" y2="984.9574623430583" stroke="#62ddff" stroke-opacity=".72" stroke-width="3.15"/><circle cx="860.1491347236679" cy="984.9574623430583" r="7.7" fill="#62ddff" fill-opacity=".85"/><line x1="876.949134723668" y1="1014.0559159102154" x2="893.7491347236679" y2="984.9574623430583" stroke="#62ddff" stroke-opacity=".72" stroke-width="3.15"/><circle cx="893.7491347236679" cy="984.9574623430583" r="7.7" fill="#62ddff" fill-opacity=".85"/><circle cx="876.949134723668" cy="1014.0559159102154" r="9.1" fill="#8c6cff"/><path d="M1160.0 710.0 Q930.0 650.0 710.0 710.0" fill="none" stroke="#ff7a1a" stroke-opacity="0.5" stroke-width="2.5"/><path d="M610.0 710.0 Q640.0 610.0 710.0 580.0 Q780.0 610.0 810.0 710.0 Q780.0 810.0 710.0 840.0 Q640.0 810.0 610.0 710.0Z" fill="url(#glassWarm)" stroke="#ff7a1a" stroke-opacity=".42" stroke-width="2" filter="url(#shadow)"/><path d="M710.0 663.8 L745.0 680.6 V708.6 Q745.0 742.2 710.0 759.0 Q675.0 742.2 675.0 708.6 V680.6Z" fill="none" stroke="#ff7a1a" stroke-width="5.6000000000000005"/><path d="M696.0 710.0 L708.6 724.0 L729.6 694.6" fill="none" stroke="#ff7a1a" stroke-width="5.6000000000000005" stroke-linecap="round" stroke-linejoin="round"/><path d="M1195.1 642.8 Q1074.9 483.7 876.9491347236678 405.9440840897846" fill="none" stroke="#62ddff" stroke-opacity="0.2" stroke-width="2.5"/><path d="M776.9491347236678 405.9440840897846 Q806.9491347236678 305.9440840897846 876.9491347236678 275.9440840897846 Q946.9491347236678 305.9440840897846 976.9491347236678 405.9440840897846 Q946.9491347236678 505.9440840897846 876.9491347236678 535.9440840897846 Q806.9491347236678 505.9440840897846 776.9491347236678 405.9440840897846Z" fill="url(#glass)" stroke="#62ddff" stroke-opacity=".42" stroke-width="2" filter="url(#shadow)"/><circle cx="850.3491347236678" cy="405.9440840897846" r="7.7" fill="#62ddff"/><path d="M862.9491347236678 386.3440840897846 Q883.8091347236679 405.9440840897846 862.9491347236678 425.54408408978463" fill="none" stroke="#62ddff" stroke-width="4.55" stroke-linecap="round"/><path d="M862.9491347236678 372.3440840897846 Q888.7091347236678 405.9440840897846 862.9491347236678 439.54408408978463" fill="none" stroke="#62ddff" stroke-width="4.55" stroke-linecap="round"/><path d="M862.9491347236678 358.3440840897846 Q893.6091347236678 405.9440840897846 862.9491347236678 453.54408408978463" fill="none" stroke="#62ddff" stroke-width="4.55" stroke-linecap="round"/><circle cx="1617.4" cy="199.1" r="2.8" fill="#ff7a1a" fill-opacity="0.10"/><circle cx="1373.6" cy="1173.2" r="3.8" fill="#62ddff" fill-opacity="0.28"/><circle cx="1828.6" cy="293.8" r="2.2" fill="#62ddff" fill-opacity="0.33"/><circle cx="1367.9" cy="528.3" r="3.1" fill="#62ddff" fill-opacity="0.28"/><circle cx="2085.5" cy="787.0" r="3.3" fill="#62ddff" fill-opacity="0.11"/><circle cx="856.8" cy="997.5" r="2.7" fill="#62ddff" fill-opacity="0.40"/><circle cx="1551.4" cy="811.4" r="3.6" fill="#62ddff" fill-opacity="0.24"/><circle cx="1477.3" cy="395.5" r="2.9" fill="#ff7a1a" fill-opacity="0.18"/><circle cx="1620.5" cy="546.6" r="2.5" fill="#62ddff" fill-opacity="0.30"/><circle cx="1675.2" cy="584.2" r="1.7" fill="#62ddff" fill-opacity="0.24"/><circle cx="1655.2" cy="989.0" r="3.7" fill="#62ddff" fill-opacity="0.27"/><circle cx="1444.6" cy="1131.9" r="3.1" fill="#62ddff" fill-opacity="0.37"/><circle cx="1078.5" cy="972.8" r="3.1" fill="#62ddff" fill-opacity="0.10"/><circle cx="1710.8" cy="745.5" r="2.1" fill="#62ddff" fill-opacity="0.35"/><circle cx="947.8" cy="1166.9" r="2.5" fill="#ff7a1a" fill-opacity="0.23"/><circle cx="1328.7" cy="288.4" r="3.1" fill="#62ddff" fill-opacity="0.34"/><circle cx="1638.6" cy="457.1" r="3.3" fill="#62ddff" fill-opacity="0.28"/><circle cx="843.3" cy="421.4" r="3.6" fill="#62ddff" fill-opacity="0.39"/><circle cx="910.7" cy="312.5" r="1.6" fill="#62ddff" fill-opacity="0.28"/><circle cx="984.8" cy="627.9" r="3.1" fill="#62ddff" fill-opacity="0.17"/><circle cx="1071.8" cy="1186.9" r="1.8" fill="#62ddff" fill-opacity="0.18"/><circle cx="1111.1" cy="433.5" r="1.9" fill="#ff7a1a" fill-opacity="0.15"/><circle cx="1445.3" cy="314.5" r="3.7" fill="#62ddff" fill-opacity="0.20"/><circle cx="674.7" cy="1042.8" r="3.9" fill="#62ddff" fill-opacity="0.42"/><circle cx="1204.3" cy="1180.5" r="1.6" fill="#62ddff" fill-opacity="0.10"/><circle cx="1532.1" cy="979.4" r="3.2" fill="#62ddff" fill-opacity="0.08"/><circle cx="1263.9" cy="448.9" r="2.2" fill="#62ddff" fill-opacity="0.17"/><circle cx="2014.7" cy="511.4" r="2.7" fill="#62ddff" fill-opacity="0.19"/><circle cx="848.4" cy="444.3" r="3.8" fill="#ff7a1a" fill-opacity="0.26"/><circle cx="1919.7" cy="625.2" r="3.2" fill="#62ddff" fill-opacity="0.38"/><circle cx="1119.6" cy="507.0" r="1.9" fill="#62ddff" fill-opacity="0.12"/><circle cx="1647.9" cy="499.1" r="2.3" fill="#62ddff" fill-opacity="0.11"/><circle cx="1223.4" cy="910.3" r="3.8" fill="#62ddff" fill-opacity="0.24"/><circle cx="1041.8" cy="452.1" r="1.7" fill="#62ddff" fill-opacity="0.23"/><circle cx="1727.1" cy="991.8" r="2.6" fill="#62ddff" fill-opacity="0.37"/><circle cx="669.8" cy="437.6" r="2.2" fill="#ff7a1a" fill-opacity="0.31"/><circle cx="1535.6" cy="944.2" r="2.6" fill="#62ddff" fill-opacity="0.12"/><circle cx="925.3" cy="716.1" r="3.2" fill="#62ddff" fill-opacity="0.23"/><circle cx="1188.7" cy="542.3" r="3.5" fill="#62ddff" fill-opacity="0.10"/><circle cx="1348.2" cy="1126.0" r="2.8" fill="#62ddff" fill-opacity="0.36"/><circle cx="1199.0" cy="375.1" r="3.5" fill="#62ddff" fill-opacity="0.19"/><circle cx="976.1" cy="296.8" r="1.5" fill="#62ddff" fill-opacity="0.29"/><circle cx="786.4" cy="1061.8" r="2.5" fill="#ff7a1a" fill-opacity="0.27"/><circle cx="1771.5" cy="617.9" r="1.9" fill="#62ddff" fill-opacity="0.22"/><circle cx="1546.3" cy="518.1" r="2.5" fill="#62ddff" fill-opacity="0.21"/><circle cx="1559.9" cy="762.2" r="2.8" fill="#62ddff" fill-opacity="0.26"/><circle cx="1418.4" cy="1227.5" r="2.1" fill="#62ddff" fill-opacity="0.39"/><circle cx="939.6" cy="628.8" r="3.7" fill="#62ddff" fill-opacity="0.30"/><circle cx="1584.5" cy="1197.2" r="2.7" fill="#62ddff" fill-opacity="0.18"/><circle cx="782.3" cy="340.2" r="1.9" fill="#ff7a1a" fill-opacity="0.27"/><circle cx="1533.2" cy="1108.0" r="2.8" fill="#62ddff" fill-opacity="0.26"/><circle cx="894.7" cy="981.0" r="3.9" fill="#62ddff" fill-opacity="0.37"/><circle cx="871.2" cy="252.4" r="3.2" fill="#62ddff" fill-opacity="0.21"/><circle cx="1330.6" cy="194.1" r="2.6" fill="#62ddff" fill-opacity="0.15"/><circle cx="1285.7" cy="291.1" r="3.6" fill="#62ddff" fill-opacity="0.23"/><circle cx="1695.9" cy="906.6" r="3.3" fill="#62ddff" fill-opacity="0.12"/><circle cx="1805.4" cy="1118.0" r="1.9" fill="#ff7a1a" fill-opacity="0.39"/><circle cx="1801.5" cy="812.1" r="3.0" fill="#62ddff" fill-opacity="0.21"/><circle cx="988.6" cy="411.5" r="2.2" fill="#62ddff" fill-opacity="0.30"/><circle cx="1569.0" cy="687.5" r="3.6" fill="#62ddff" fill-opacity="0.34"/><circle cx="1066.3" cy="607.8" r="2.0" fill="#62ddff" fill-opacity="0.15"/><circle cx="1322.1" cy="956.1" r="2.6" fill="#62ddff" fill-opacity="0.17"/><circle cx="1376.7" cy="996.2" r="1.7" fill="#62ddff" fill-opacity="0.18"/><circle cx="1162.9" cy="976.8" r="3.1" fill="#ff7a1a" fill-opacity="0.39"/><circle cx="510.9" cy="610.4" r="2.9" fill="#62ddff" fill-opacity="0.23"/><circle cx="775.2" cy="905.9" r="2.8" fill="#62ddff" fill-opacity="0.29"/><circle cx="948.4" cy="747.2" r="1.6" fill="#62ddff" fill-opacity="0.34"/><circle cx="695.7" cy="613.7" r="3.2" fill="#62ddff" fill-opacity="0.39"/><circle cx="1457.6" cy="880.5" r="2.8" fill="#62ddff" fill-opacity="0.24"/><circle cx="805.4" cy="932.4" r="3.2" fill="#62ddff" fill-opacity="0.33"/><circle cx="1730.9" cy="543.2" r="1.8" fill="#ff7a1a" fill-opacity="0.23"/><circle cx="1246.6" cy="1064.7" r="2.5" fill="#62ddff" fill-opacity="0.13"/><circle cx="1530.1" cy="892.4" r="2.5" fill="#62ddff" fill-opacity="0.33"/><circle cx="1446.7" cy="569.3" r="2.1" fill="#62ddff" fill-opacity="0.16"/><circle cx="1679.9" cy="967.9" r="1.6" fill="#62ddff" fill-opacity="0.15"/><circle cx="1021.0" cy="617.4" r="1.6" fill="#62ddff" fill-opacity="0.26"/><circle cx="1711.2" cy="969.6" r="2.3" fill="#62ddff" fill-opacity="0.15"/><circle cx="1223.1" cy="492.3" r="3.9" fill="#ff7a1a" fill-opacity="0.13"/><circle cx="1053.4" cy="573.0" r="3.5" fill="#62ddff" fill-opacity="0.33"/><circle cx="1642.5" cy="826.8" r="2.4" fill="#62ddff" fill-opacity="0.24"/></svg>